<svg xmlns="http://www.w3.org/2000/svg" xmlns:xlink="http://www.w3.org/1999/xlink" width="1062" zoomAndPan="magnify" viewBox="0 0 796.5 675.74998" height="901" preserveAspectRatio="xMidYMid meet" version="1.0"><defs><clipPath id="abea475c90"><path d="M 12.097656 92 L 685 92 L 685 403 L 12.097656 403 Z M 12.097656 92 " clip-rule="nonzero"/></clipPath><clipPath id="f83a203643"><path d="M 574 576 L 662 576 L 662 664.375 L 574 664.375 Z M 574 576 " clip-rule="nonzero"/></clipPath><clipPath id="3196f49a97"><path d="M 671 576 L 761 576 L 761 664.375 L 671 664.375 Z M 671 576 " clip-rule="nonzero"/></clipPath></defs><path fill="#0097b2" d="M 473.945312 127.023438 C 473.945312 127.738281 473.910156 128.449219 473.839844 129.160156 C 473.769531 129.871094 473.664062 130.578125 473.523438 131.277344 C 473.386719 131.976562 473.210938 132.671875 473.003906 133.355469 C 472.796875 134.035156 472.558594 134.707031 472.285156 135.367188 C 472.011719 136.027344 471.707031 136.671875 471.367188 137.300781 C 471.03125 137.933594 470.664062 138.542969 470.269531 139.136719 C 469.871094 139.730469 469.449219 140.304688 468.996094 140.855469 C 468.542969 141.40625 468.0625 141.9375 467.558594 142.441406 C 467.054688 142.945312 466.523438 143.425781 465.972656 143.878906 C 465.421875 144.332031 464.847656 144.757812 464.253906 145.152344 C 463.660156 145.550781 463.046875 145.917969 462.417969 146.253906 C 461.789062 146.589844 461.144531 146.894531 460.484375 147.167969 C 459.824219 147.441406 459.152344 147.679688 458.46875 147.886719 C 457.785156 148.09375 457.09375 148.269531 456.394531 148.40625 C 455.695312 148.546875 454.988281 148.652344 454.277344 148.722656 C 453.566406 148.792969 452.855469 148.828125 452.140625 148.828125 C 451.425781 148.828125 450.714844 148.792969 450.003906 148.722656 C 449.292969 148.652344 448.589844 148.546875 447.886719 148.40625 C 447.1875 148.269531 446.496094 148.09375 445.8125 147.886719 C 445.128906 147.679688 444.457031 147.441406 443.796875 147.167969 C 443.136719 146.894531 442.492188 146.589844 441.863281 146.253906 C 441.234375 145.917969 440.621094 145.550781 440.027344 145.152344 C 439.433594 144.757812 438.863281 144.332031 438.308594 143.878906 C 437.757812 143.425781 437.230469 142.945312 436.722656 142.441406 C 436.21875 141.9375 435.742188 141.40625 435.289062 140.855469 C 434.835938 140.304688 434.410156 139.730469 434.011719 139.136719 C 433.617188 138.542969 433.25 137.933594 432.914062 137.300781 C 432.578125 136.671875 432.273438 136.027344 432 135.367188 C 431.726562 134.707031 431.484375 134.035156 431.277344 133.355469 C 431.070312 132.671875 430.898438 131.976562 430.757812 131.277344 C 430.617188 130.578125 430.515625 129.871094 430.445312 129.160156 C 430.375 128.449219 430.339844 127.738281 430.339844 127.023438 C 430.339844 126.3125 430.375 125.597656 430.445312 124.886719 C 430.515625 124.175781 430.617188 123.472656 430.757812 122.769531 C 430.898438 122.070312 431.070312 121.378906 431.277344 120.695312 C 431.484375 120.011719 431.726562 119.339844 432 118.679688 C 432.273438 118.023438 432.578125 117.375 432.914062 116.746094 C 433.25 116.117188 433.617188 115.503906 434.011719 114.910156 C 434.410156 114.316406 434.835938 113.746094 435.289062 113.195312 C 435.742188 112.640625 436.21875 112.113281 436.722656 111.609375 C 437.230469 111.101562 437.757812 110.625 438.308594 110.171875 C 438.863281 109.71875 439.433594 109.292969 440.027344 108.898438 C 440.621094 108.5 441.234375 108.132812 441.863281 107.796875 C 442.492188 107.460938 443.136719 107.15625 443.796875 106.882812 C 444.457031 106.609375 445.128906 106.367188 445.8125 106.160156 C 446.496094 105.953125 447.1875 105.78125 447.886719 105.640625 C 448.589844 105.503906 449.292969 105.398438 450.003906 105.328125 C 450.714844 105.257812 451.425781 105.222656 452.140625 105.222656 C 452.855469 105.222656 453.566406 105.257812 454.277344 105.328125 C 454.988281 105.398438 455.695312 105.503906 456.394531 105.640625 C 457.09375 105.78125 457.785156 105.953125 458.46875 106.160156 C 459.152344 106.367188 459.824219 106.609375 460.484375 106.882812 C 461.144531 107.15625 461.789062 107.460938 462.417969 107.796875 C 463.046875 108.132812 463.660156 108.5 464.253906 108.898438 C 464.847656 109.292969 465.421875 109.71875 465.972656 110.171875 C 466.523438 110.625 467.054688 111.101562 467.558594 111.609375 C 468.0625 112.113281 468.542969 112.640625 468.996094 113.195312 C 469.449219 113.746094 469.871094 114.316406 470.269531 114.910156 C 470.664062 115.503906 471.03125 116.117188 471.367188 116.746094 C 471.707031 117.375 472.011719 118.023438 472.285156 118.679688 C 472.558594 119.339844 472.796875 120.011719 473.003906 120.695312 C 473.210938 121.378906 473.386719 122.070312 473.523438 122.769531 C 473.664062 123.472656 473.769531 124.175781 473.839844 124.886719 C 473.910156 125.597656 473.945312 126.3125 473.945312 127.023438 Z M 473.945312 127.023438 " fill-opacity="1" fill-rule="nonzero"/><path fill="#0097b2" d="M 689.058594 110.308594 C 689.058594 111.144531 689.019531 111.972656 688.9375 112.804688 C 688.855469 113.632812 688.734375 114.453125 688.570312 115.273438 C 688.410156 116.089844 688.207031 116.894531 687.964844 117.691406 C 687.722656 118.492188 687.441406 119.273438 687.125 120.042969 C 686.804688 120.8125 686.449219 121.566406 686.054688 122.300781 C 685.664062 123.035156 685.234375 123.75 684.773438 124.441406 C 684.308594 125.132812 683.8125 125.800781 683.285156 126.445312 C 682.757812 127.089844 682.199219 127.707031 681.609375 128.296875 C 681.019531 128.882812 680.402344 129.445312 679.761719 129.972656 C 679.117188 130.5 678.449219 130.996094 677.753906 131.457031 C 677.0625 131.921875 676.347656 132.347656 675.613281 132.742188 C 674.878906 133.136719 674.128906 133.492188 673.355469 133.808594 C 672.585938 134.128906 671.804688 134.410156 671.007812 134.648438 C 670.210938 134.890625 669.402344 135.09375 668.585938 135.257812 C 667.769531 135.417969 666.945312 135.542969 666.117188 135.625 C 665.289062 135.703125 664.457031 135.746094 663.625 135.746094 C 662.789062 135.746094 661.960938 135.703125 661.128906 135.625 C 660.300781 135.542969 659.476562 135.417969 658.660156 135.257812 C 657.84375 135.09375 657.035156 134.890625 656.238281 134.648438 C 655.441406 134.410156 654.660156 134.128906 653.890625 133.808594 C 653.121094 133.492188 652.367188 133.136719 651.632812 132.742188 C 650.898438 132.347656 650.183594 131.921875 649.492188 131.457031 C 648.800781 130.996094 648.132812 130.5 647.488281 129.972656 C 646.84375 129.445312 646.226562 128.882812 645.636719 128.296875 C 645.046875 127.707031 644.488281 127.089844 643.960938 126.445312 C 643.433594 125.800781 642.9375 125.132812 642.472656 124.441406 C 642.011719 123.75 641.582031 123.035156 641.191406 122.300781 C 640.796875 121.566406 640.441406 120.8125 640.125 120.042969 C 639.804688 119.273438 639.523438 118.492188 639.28125 117.691406 C 639.039062 116.894531 638.839844 116.089844 638.675781 115.273438 C 638.515625 114.453125 638.390625 113.632812 638.308594 112.804688 C 638.226562 111.972656 638.1875 111.144531 638.1875 110.308594 C 638.1875 109.476562 638.226562 108.644531 638.308594 107.816406 C 638.390625 106.988281 638.515625 106.164062 638.675781 105.347656 C 638.839844 104.53125 639.039062 103.722656 639.28125 102.925781 C 639.523438 102.128906 639.804688 101.34375 640.125 100.574219 C 640.441406 99.804688 640.796875 99.054688 641.191406 98.320312 C 641.582031 97.585938 642.011719 96.871094 642.472656 96.179688 C 642.9375 95.484375 643.433594 94.816406 643.960938 94.171875 C 644.488281 93.527344 645.046875 92.914062 645.636719 92.324219 C 646.226562 91.734375 646.84375 91.175781 647.488281 90.648438 C 648.132812 90.117188 648.800781 89.625 649.492188 89.160156 C 650.183594 88.699219 650.898438 88.269531 651.632812 87.878906 C 652.367188 87.484375 653.121094 87.128906 653.890625 86.808594 C 654.660156 86.492188 655.441406 86.210938 656.238281 85.96875 C 657.035156 85.726562 657.84375 85.523438 658.660156 85.363281 C 659.476562 85.199219 660.300781 85.078125 661.128906 84.996094 C 661.960938 84.914062 662.789062 84.875 663.625 84.875 C 664.457031 84.875 665.289062 84.914062 666.117188 84.996094 C 666.945312 85.078125 667.769531 85.199219 668.585938 85.363281 C 669.402344 85.523438 670.210938 85.726562 671.007812 85.96875 C 671.804688 86.210938 672.585938 86.492188 673.355469 86.808594 C 674.128906 87.128906 674.878906 87.484375 675.613281 87.878906 C 676.347656 88.269531 677.0625 88.699219 677.753906 89.160156 C 678.449219 89.625 679.117188 90.117188 679.761719 90.648438 C 680.402344 91.175781 681.019531 91.734375 681.609375 92.324219 C 682.199219 92.914062 682.757812 93.527344 683.285156 94.171875 C 683.8125 94.816406 684.308594 95.484375 684.773438 96.179688 C 685.234375 96.871094 685.664062 97.585938 686.054688 98.320312 C 686.449219 99.054688 686.804688 99.804688 687.125 100.574219 C 687.441406 101.34375 687.722656 102.128906 687.964844 102.925781 C 688.207031 103.722656 688.410156 104.53125 688.570312 105.347656 C 688.734375 106.164062 688.855469 106.988281 688.9375 107.816406 C 689.019531 108.644531 689.058594 109.476562 689.058594 110.308594 Z M 689.058594 110.308594 " fill-opacity="1" fill-rule="nonzero"/><path fill="#0097b2" d="M 596.035156 337.382812 C 596.035156 338.097656 596 338.8125 595.929688 339.519531 C 595.863281 340.230469 595.757812 340.9375 595.617188 341.636719 C 595.476562 342.339844 595.304688 343.03125 595.097656 343.714844 C 594.890625 344.394531 594.648438 345.066406 594.375 345.726562 C 594.101562 346.386719 593.796875 347.03125 593.460938 347.660156 C 593.125 348.292969 592.757812 348.902344 592.363281 349.496094 C 591.964844 350.089844 591.539062 350.664062 591.085938 351.214844 C 590.632812 351.765625 590.15625 352.296875 589.652344 352.800781 C 589.144531 353.304688 588.617188 353.785156 588.066406 354.238281 C 587.511719 354.691406 586.941406 355.117188 586.347656 355.511719 C 585.753906 355.910156 585.140625 356.277344 584.511719 356.613281 C 583.882812 356.949219 583.238281 357.253906 582.578125 357.527344 C 581.917969 357.800781 581.246094 358.039062 580.5625 358.246094 C 579.878906 358.453125 579.1875 358.628906 578.488281 358.769531 C 577.789062 358.90625 577.082031 359.011719 576.371094 359.082031 C 575.660156 359.152344 574.949219 359.1875 574.234375 359.1875 C 573.519531 359.1875 572.808594 359.152344 572.097656 359.082031 C 571.386719 359.011719 570.679688 358.90625 569.980469 358.769531 C 569.28125 358.628906 568.589844 358.453125 567.90625 358.246094 C 567.222656 358.039062 566.550781 357.800781 565.890625 357.527344 C 565.230469 357.253906 564.585938 356.949219 563.957031 356.613281 C 563.328125 356.277344 562.714844 355.910156 562.121094 355.511719 C 561.527344 355.117188 560.953125 354.691406 560.402344 354.238281 C 559.851562 353.785156 559.324219 353.304688 558.816406 352.800781 C 558.3125 352.296875 557.832031 351.765625 557.378906 351.214844 C 556.925781 350.664062 556.503906 350.089844 556.105469 349.496094 C 555.710938 348.902344 555.34375 348.292969 555.007812 347.660156 C 554.667969 347.03125 554.363281 346.386719 554.089844 345.726562 C 553.816406 345.066406 553.578125 344.394531 553.371094 343.714844 C 553.164062 343.03125 552.988281 342.339844 552.851562 341.636719 C 552.710938 340.9375 552.605469 340.230469 552.535156 339.519531 C 552.46875 338.8125 552.433594 338.097656 552.433594 337.382812 C 552.433594 336.671875 552.46875 335.957031 552.535156 335.246094 C 552.605469 334.535156 552.710938 333.832031 552.851562 333.128906 C 552.988281 332.429688 553.164062 331.738281 553.371094 331.054688 C 553.578125 330.371094 553.816406 329.699219 554.089844 329.039062 C 554.363281 328.382812 554.667969 327.738281 555.007812 327.105469 C 555.34375 326.476562 555.710938 325.867188 556.105469 325.273438 C 556.503906 324.679688 556.925781 324.105469 557.378906 323.554688 C 557.832031 323 558.3125 322.472656 558.816406 321.96875 C 559.324219 321.460938 559.851562 320.984375 560.402344 320.53125 C 560.953125 320.078125 561.527344 319.652344 562.121094 319.257812 C 562.714844 318.859375 563.328125 318.492188 563.957031 318.15625 C 564.585938 317.820312 565.230469 317.515625 565.890625 317.242188 C 566.550781 316.96875 567.222656 316.726562 567.90625 316.519531 C 568.589844 316.3125 569.28125 316.140625 569.980469 316 C 570.679688 315.863281 571.386719 315.757812 572.097656 315.6875 C 572.808594 315.617188 573.519531 315.582031 574.234375 315.582031 C 574.949219 315.582031 575.660156 315.617188 576.371094 315.6875 C 577.082031 315.757812 577.789062 315.863281 578.488281 316 C 579.1875 316.140625 579.878906 316.3125 580.5625 316.519531 C 581.246094 316.726562 581.917969 316.96875 582.578125 317.242188 C 583.238281 317.515625 583.882812 317.820312 584.511719 318.15625 C 585.140625 318.492188 585.753906 318.859375 586.347656 319.257812 C 586.941406 319.652344 587.511719 320.078125 588.066406 320.53125 C 588.617188 320.984375 589.144531 321.460938 589.652344 321.96875 C 590.15625 322.472656 590.632812 323 591.085938 323.554688 C 591.539062 324.105469 591.964844 324.679688 592.363281 325.273438 C 592.757812 325.867188 593.125 326.476562 593.460938 327.105469 C 593.796875 327.738281 594.101562 328.382812 594.375 329.039062 C 594.648438 329.699219 594.890625 330.371094 595.097656 331.054688 C 595.304688 331.738281 595.476562 332.429688 595.617188 333.132812 C 595.757812 333.832031 595.863281 334.535156 595.929688 335.246094 C 596 335.957031 596.035156 336.671875 596.035156 337.382812 Z M 596.035156 337.382812 " fill-opacity="1" fill-rule="nonzero"/><path fill="#0097b2" d="M 70.601562 291.996094 C 70.601562 291.996094 77.582031 249.609375 99.214844 236.035156 C 110.171875 229.160156 131.554688 230.964844 145.214844 228.40625 C 171.167969 223.539062 202.441406 210.964844 202.441406 210.964844 C 202.441406 210.964844 237.808594 199.066406 255.320312 194.613281 C 297.269531 183.941406 319.265625 172.074219 362.53125 172.808594 C 396.039062 173.378906 415.246094 177.460938 446.925781 188.433594 C 462.910156 193.972656 524.453125 228.40625 524.453125 228.40625 L 488.476562 262.5625 C 488.476562 262.5625 390.589844 272.886719 328.230469 267.285156 C 306.5625 265.339844 293.914062 266.007812 273 260.019531 C 254.242188 254.648438 227.214844 240.035156 227.214844 240.035156 L 251.921875 231.3125 C 251.921875 231.3125 295.6875 241.582031 324.234375 244.757812 C 388.070312 251.859375 476.980469 242.570312 488.476562 236.035156 C 488.476562 236.035156 448.707031 211.316406 436.058594 206.964844 C 408.515625 197.496094 391.632812 195.585938 362.53125 194.613281 C 326.164062 193.394531 307.5 197.539062 270.171875 206.964844 C 253.378906 211.207031 214.753906 228.40625 214.753906 228.40625 C 214.753906 228.40625 178.136719 242.574219 150.648438 249.117188 C 139.753906 251.710938 120.820312 248.894531 112.617188 253.113281 C 97.121094 261.085938 95.59375 287.273438 95.59375 287.273438 Z M 70.601562 291.996094 " fill-opacity="1" fill-rule="nonzero"/><g clip-path="url(#abea475c90)"><path fill="#0097b2" d="M 155.476562 293.449219 C 155.476562 293.449219 173.703125 281.335938 187.054688 279.640625 C 202.890625 277.632812 213.332031 280.09375 226.984375 288.363281 C 238.574219 295.382812 244.304688 301.789062 250.578125 313.796875 C 255.296875 322.832031 257.835938 338.871094 257.835938 338.871094 C 257.835938 338.871094 275.984375 339.261719 287.601562 338.871094 C 320.601562 337.761719 371.449219 327.96875 371.449219 327.96875 C 371.449219 327.96875 329.980469 345.269531 302.121094 351.953125 C 273.328125 358.859375 226.984375 362.125 226.984375 362.125 C 226.984375 362.125 234.070312 348.339844 233.878906 338.871094 C 233.539062 321.917969 225.148438 309.570312 209.558594 302.898438 C 198.222656 298.042969 189.46875 298.410156 177.980469 302.898438 C 168.492188 306.601562 162.992188 310.570312 157.652344 319.25 C 148.175781 334.65625 150.398438 351.230469 161.648438 365.398438 C 173.707031 380.589844 196.691406 378.476562 209.558594 378.476562 C 242.5625 378.476562 293.046875 365.398438 293.046875 365.398438 C 293.046875 365.398438 349.175781 352.828125 383.066406 338.871094 C 417.5 324.691406 435.644531 313.675781 466.914062 293.449219 C 495.992188 274.640625 511.503906 262.6875 537.695312 240.035156 C 572.367188 210.046875 619.367188 155.730469 619.367188 155.730469 C 619.367188 155.730469 606.09375 148.015625 596.863281 144.828125 C 576.976562 137.964844 563.726562 136.503906 543.140625 140.832031 C 528.65625 143.878906 520.355469 147.152344 508.292969 155.730469 C 495.605469 164.757812 481.796875 185.527344 481.796875 185.527344 L 460.019531 179.351562 C 460.019531 179.351562 477.988281 156.464844 492.324219 144.828125 C 504.695312 134.789062 511.84375 128.5 526.808594 123.027344 C 542.378906 117.332031 552.367188 116.519531 568.914062 117.578125 C 580.011719 118.289062 586.203125 119.859375 596.863281 123.027344 C 610.191406 126.988281 629.53125 137.199219 629.53125 137.199219 L 638.914062 123.027344 L 645.816406 102.316406 L 655.992188 94.320312 L 676.339844 92.140625 L 684.699219 109.582031 L 681.066406 123.027344 L 664.351562 129.203125 L 659.625 137.199219 C 659.625 137.199219 633.625 172.738281 615.011719 193.886719 C 593.675781 218.125 580.726562 230.957031 556.570312 252.386719 C 532.699219 273.570312 518.597656 284.78125 492.324219 302.898438 C 458.125 326.476562 438.136719 339.1875 400.125 355.949219 C 360.042969 373.625 293.046875 389.378906 293.046875 389.378906 C 293.046875 389.378906 221.035156 405.003906 193.226562 402.460938 C 177.6875 401.039062 168.136719 398.5 155.476562 389.378906 C 144.277344 381.3125 132.972656 362.125 132.972656 362.125 C 132.972656 362.125 106.9375 360.308594 99.9375 355.949219 C 90.152344 349.851562 78.957031 333.054688 78.957031 333.054688 L 106.9375 334.875 C 106.9375 334.875 116.027344 339.179688 121.109375 339.960938 C 126.191406 340.742188 132.972656 338.871094 132.972656 338.871094 L 132.972656 322.519531 L 12.097656 313.796875 Z M 155.476562 293.449219 " fill-opacity="1" fill-rule="nonzero"/></g><path fill="#0097b2" d="M 450.324219 344.320312 L 516.09375 344.320312 L 551.703125 336.328125 L 577.867188 325.789062 L 590.949219 344.320312 L 561.152344 356.308594 L 543.347656 361.398438 C 543.347656 361.398438 548.011719 371.734375 553.523438 375.933594 C 561.777344 382.230469 569.410156 382.148438 579.683594 380.660156 C 591.898438 378.886719 599.882812 374.789062 606.9375 364.664062 C 613.414062 355.371094 614.746094 347.535156 613.113281 336.328125 C 611.421875 324.691406 607.429688 317.46875 598.214844 310.164062 C 587.914062 301.996094 578.375 299.441406 565.511719 302.171875 C 552.460938 304.9375 538.625 323.246094 538.625 323.246094 L 516.09375 329.785156 C 516.09375 329.785156 518.011719 314.992188 523 307.257812 C 527.515625 300.253906 531.863281 297.597656 538.625 292.722656 C 546.65625 286.933594 551.566406 283.570312 561.152344 281.09375 C 575.210938 277.460938 584.777344 278.511719 598.214844 284 C 613.832031 290.382812 622.148438 298.417969 629.828125 313.433594 C 635.457031 324.4375 636.734375 344.320312 636.734375 344.320312 L 694.511719 342.503906 C 694.511719 342.503906 691.773438 337.140625 691.601562 333.421875 C 691.363281 328.175781 695.441406 325.925781 695.964844 320.703125 C 696.699219 313.304688 691.601562 302.171875 691.601562 302.171875 C 691.601562 302.171875 666.703125 283.859375 648.726562 276.007812 C 618.449219 262.78125 565.511719 260.746094 565.511719 260.746094 L 587.679688 242.941406 C 587.679688 242.941406 622.726562 246.257812 644 253.113281 C 661.773438 258.84375 687.605469 272.738281 687.605469 272.738281 C 687.605469 272.738281 706.390625 282.339844 712.316406 293.449219 C 717.136719 302.484375 720.332031 309.550781 717.039062 319.25 C 716.121094 321.953125 714.335938 322.992188 713.769531 325.789062 C 712.628906 331.421875 718.28125 333.878906 718.855469 339.597656 C 719.523438 346.214844 715.585938 356.308594 715.585938 356.308594 L 701.777344 364.664062 L 632.011719 366.488281 C 632.011719 366.488281 621.152344 384.757812 610.207031 391.921875 C 598.882812 399.335938 590.496094 401.507812 576.960938 401.734375 C 562.605469 401.976562 553.820312 399.34375 541.53125 391.921875 C 529.066406 384.398438 516.09375 364.664062 516.09375 364.664062 L 411.808594 364.664062 Z M 450.324219 344.320312 " fill-opacity="1" fill-rule="nonzero"/><path fill="#0097b2" d="M 430.703125 136.109375 C 440.992188 122.128906 445.128906 118.25 458.683594 107.402344 C 476.449219 93.183594 493.710938 83.878906 515.367188 76.878906 C 541.074219 68.570312 554.652344 68.058594 581.5 71.066406 C 602.296875 73.394531 633.464844 84.148438 633.464844 84.148438 L 624.378906 104.496094 C 624.378906 104.496094 568.832031 85.273438 533.535156 94.320312 C 509.421875 100.503906 495.097656 106.722656 475.398438 121.9375 C 455.933594 136.96875 432.519531 169.902344 432.519531 169.902344 L 414.351562 164.089844 C 414.351562 164.089844 423.199219 146.300781 430.703125 136.109375 Z M 430.703125 136.109375 " fill-opacity="1" fill-rule="nonzero"/><path fill="#0097b2" d="M 697.417969 130.296875 C 697.417969 130.296875 715.03125 161.050781 722.125 180.441406 C 729.808594 201.429688 731.558594 217.683594 731.210938 240.035156 C 730.929688 258.179688 723.941406 283.636719 723.941406 283.636719 L 705.773438 267.285156 C 705.773438 267.285156 714.285156 240.035156 708.683594 207.691406 C 703.328125 176.808594 681.792969 147.011719 681.792969 147.011719 Z M 697.417969 130.296875 " fill-opacity="1" fill-rule="nonzero"/><path fill="#0097b2" d="M 644.191406 181.03125 L 658.726562 161.773438 C 658.726562 161.773438 672.289062 181.882812 677.066406 196.429688 C 681.46875 209.816406 683.179688 217.953125 682.882812 232.039062 C 682.722656 239.703125 680.53125 251.523438 680.53125 251.523438 L 661.636719 244.621094 C 661.636719 244.621094 664.832031 224.996094 661.636719 212.78125 C 658.214844 199.714844 644.191406 181.03125 644.191406 181.03125 Z M 644.191406 181.03125 " fill-opacity="1" fill-rule="nonzero"/><path fill="#0097b2" d="M 500.105469 577.976562 C 503.085938 577.304688 563.332031 577.976562 563.332031 577.976562 L 563.332031 595.761719 C 563.332031 595.761719 509.054688 594.121094 501.558594 595.761719 C 497.34375 596.683594 497.769531 612.160156 497.769531 612.160156 L 563.332031 612.160156 L 563.695312 626.957031 L 497.769531 626.957031 C 497.769531 626.957031 496.777344 641.9375 501.558594 645.125 C 504.371094 647 563.332031 646.652344 563.332031 646.652344 L 563.695312 662.203125 C 563.695312 662.203125 499.871094 663.375 497.769531 662.203125 C 494.492188 660.375 485.707031 655.3125 481.609375 650.105469 C 474.71875 641.347656 475.988281 622.464844 475.988281 622.464844 C 475.988281 622.464844 474.472656 604.871094 479.265625 595.761719 C 483.761719 587.21875 492.84375 579.617188 500.105469 577.976562 Z M 500.105469 577.976562 " fill-opacity="1" fill-rule="nonzero"/><path fill="#0097b2" d="M 656.507812 421.804688 C 661.285156 420.8125 757.882812 421.804688 757.882812 421.804688 L 757.882812 448.097656 C 757.882812 448.097656 670.855469 445.675781 658.839844 448.097656 C 652.078125 449.460938 652.765625 472.335938 652.765625 472.335938 L 757.882812 472.335938 L 758.464844 494.214844 L 652.765625 494.214844 C 652.765625 494.214844 651.175781 516.359375 658.839844 521.074219 C 663.347656 523.84375 757.882812 523.332031 757.882812 523.332031 L 758.464844 546.320312 C 758.464844 546.320312 656.128906 548.050781 652.765625 546.320312 C 647.507812 543.617188 633.421875 536.128906 626.851562 528.433594 C 615.804688 515.488281 617.839844 487.574219 617.839844 487.574219 C 617.839844 487.574219 615.410156 461.566406 623.097656 448.097656 C 630.304688 435.464844 644.867188 424.230469 656.507812 421.804688 Z M 656.507812 421.804688 " fill-opacity="1" fill-rule="nonzero"/><path fill="#0097b2" d="M 219.945312 422.089844 C 219.945312 422.089844 326.777344 419.546875 337.316406 422.089844 C 343.128906 423.492188 359.117188 433.355469 361.660156 443.167969 C 365.792969 459.101562 368.496094 470.339844 361.660156 485.316406 C 356.535156 496.554688 337.316406 506.03125 337.316406 506.03125 L 368.929688 547.089844 L 332.226562 547.089844 L 304.613281 508.574219 L 251.921875 508.574219 L 251.921875 485.316406 C 251.921875 485.316406 319.148438 487.132812 323.871094 485.316406 C 337.644531 480.019531 337.976562 451.867188 323.871094 447.527344 C 319.148438 446.074219 251.921875 447.527344 251.921875 447.527344 L 251.921875 547.089844 L 219.945312 547.089844 Z M 219.945312 422.089844 " fill-opacity="1" fill-rule="nonzero"/><path fill="#0097b2" d="M 38.261719 423.542969 C 38.261719 423.542969 144.367188 422.058594 157.445312 423.542969 C 166.613281 424.585938 171.101562 429.1875 177.796875 435.535156 C 183.707031 441.144531 186.214844 445.289062 189.785156 452.613281 C 195.617188 464.570312 196.382812 472.742188 196.328125 486.042969 C 196.273438 499.066406 195.875 507.234375 189.785156 518.746094 C 185.175781 527.46875 181.34375 532.105469 173.433594 538.003906 C 164.035156 545.019531 145.457031 548.90625 145.457031 548.90625 L 38.261719 545.636719 L 36.082031 493.3125 C 42.257812 483.832031 67.332031 464.242188 67.332031 464.242188 L 67.332031 521.289062 L 142.910156 521.289062 C 142.910156 521.289062 156.359375 514.164062 161.445312 506.390625 C 169.167969 494.589844 170.039062 483.480469 164.714844 470.417969 C 159.667969 458.042969 152.136719 451.171875 139.277344 447.527344 C 130.195312 444.949219 38.261719 447.527344 38.261719 447.527344 Z M 38.261719 423.542969 " fill-opacity="1" fill-rule="nonzero"/><path fill="#0097b2" d="M 392.183594 421.363281 L 416.894531 421.363281 C 417.375 421.363281 417.839844 421.457031 418.285156 421.640625 C 418.730469 421.824219 419.121094 422.085938 419.464844 422.425781 C 419.804688 422.769531 420.066406 423.160156 420.25 423.605469 C 420.4375 424.050781 420.527344 424.515625 420.527344 424.996094 L 420.527344 542.730469 C 420.527344 543.210938 420.4375 543.675781 420.25 544.121094 C 420.066406 544.566406 419.804688 544.957031 419.464844 545.296875 C 419.121094 545.640625 418.730469 545.902344 418.285156 546.085938 C 417.839844 546.269531 417.375 546.363281 416.894531 546.363281 L 392.183594 546.363281 C 391.703125 546.363281 391.238281 546.269531 390.792969 546.085938 C 390.347656 545.902344 389.957031 545.640625 389.617188 545.296875 C 389.273438 544.957031 389.011719 544.566406 388.828125 544.121094 C 388.644531 543.675781 388.550781 543.210938 388.550781 542.730469 L 388.550781 424.996094 C 388.550781 424.515625 388.644531 424.050781 388.828125 423.605469 C 389.011719 423.160156 389.273438 422.769531 389.617188 422.425781 C 389.957031 422.085938 390.347656 421.824219 390.792969 421.640625 C 391.238281 421.457031 391.703125 421.363281 392.183594 421.363281 Z M 392.183594 421.363281 " fill-opacity="1" fill-rule="nonzero"/><path fill="#0097b2" d="M 368.203125 577.613281 C 368.929688 576.523438 396.183594 577.613281 396.183594 577.613281 L 444.511719 644.835938 L 444.511719 577.613281 L 462.679688 577.613281 C 462.679688 577.613281 463.40625 654.285156 462.679688 656.464844 C 462.363281 661.242188 457.195312 662.738281 456.863281 663.003906 C 455.058594 664.46875 437.28125 663.808594 437.28125 663.808594 L 387.007812 596.238281 L 385.5625 662.347656 L 368.203125 662.347656 C 368.203125 662.347656 367.476562 578.703125 368.203125 577.613281 Z M 368.203125 577.613281 " fill-opacity="1" fill-rule="nonzero"/><path fill="#0097b2" d="M 254.832031 577.371094 C 255.558594 576.28125 282.808594 577.371094 282.808594 577.371094 L 331.136719 644.59375 L 331.136719 577.371094 L 349.308594 577.371094 C 349.308594 577.371094 350.035156 654.042969 349.308594 656.222656 C 348.992188 661 343.820312 662.496094 343.492188 662.761719 C 341.683594 664.222656 323.910156 663.566406 323.910156 663.566406 L 273.636719 596 L 272.191406 662.105469 L 254.832031 662.105469 C 254.832031 662.105469 254.105469 578.460938 254.832031 577.371094 Z M 254.832031 577.371094 " fill-opacity="1" fill-rule="nonzero"/><path fill="#0097b2" d="M 435.789062 421.363281 L 470.671875 421.363281 L 523 517.65625 L 577.140625 421.363281 L 610.207031 421.363281 C 610.207031 421.363281 541.582031 547.089844 537.535156 547.089844 C 531.355469 547.089844 512.097656 547.867188 507.375 547.089844 C 502.648438 546.3125 435.789062 421.363281 435.789062 421.363281 Z M 435.789062 421.363281 " fill-opacity="1" fill-rule="nonzero"/><g clip-path="url(#f83a203643)"><path fill="#0097b2" d="M 597.882812 577.613281 C 605.148438 575.070312 661.835938 577.613281 661.835938 577.613281 L 661.835938 595.054688 C 661.835938 595.054688 605.925781 594.5625 601.851562 597.234375 C 590.222656 604.867188 594.246094 634.664062 603.332031 643.019531 C 608.378906 647.660156 661.835938 644.472656 661.835938 644.472656 L 661.835938 664.09375 C 661.835938 664.09375 613.113281 664.09375 603.332031 664.09375 C 592.464844 664.09375 580.453125 650.652344 578.257812 644.472656 C 574.261719 633.207031 573.273438 606.367188 578.257812 597.234375 C 582.226562 589.96875 590.613281 580.15625 597.882812 577.613281 Z M 597.882812 577.613281 " fill-opacity="1" fill-rule="nonzero"/></g><path fill="#0097b2" d="M 64.167969 576.5625 C 71.4375 574.019531 128.121094 576.5625 128.121094 576.5625 L 128.121094 594.003906 C 128.121094 594.003906 72.214844 593.511719 68.136719 596.1875 C 56.511719 603.816406 60.535156 633.613281 69.621094 641.96875 C 74.664062 646.613281 128.121094 643.425781 128.121094 643.425781 L 128.121094 663.046875 C 128.121094 663.046875 79.402344 663.046875 69.621094 663.046875 C 58.75 663.046875 46.738281 649.601562 44.546875 643.425781 C 40.550781 632.160156 39.558594 605.316406 44.546875 596.1875 C 48.515625 588.917969 56.902344 579.105469 64.167969 576.5625 Z M 64.167969 576.5625 " fill-opacity="1" fill-rule="nonzero"/><g clip-path="url(#3196f49a97)"><path fill="#0097b2" d="M 671.101562 576.523438 L 760.492188 576.523438 L 760.492188 593.964844 L 725.398438 593.964844 L 725.398438 664.820312 L 705.988281 664.820312 L 705.988281 593.964844 L 671.101562 593.964844 Z M 671.101562 576.523438 " fill-opacity="1" fill-rule="nonzero"/></g><path fill="#0097b2" d="M 204.507812 576.886719 C 223.96875 576.886719 239.75 592.664062 239.75 612.128906 L 239.75 627.398438 C 239.75 646.863281 223.96875 662.640625 204.507812 662.640625 L 171.613281 662.640625 C 152.148438 662.640625 136.371094 646.863281 136.371094 627.398438 L 136.371094 612.128906 C 136.371094 592.664062 152.148438 576.886719 171.613281 576.886719 Z M 177.796875 592.875 C 165.753906 592.875 155.992188 602.636719 155.992188 614.675781 L 155.992188 624.125 C 155.992188 636.167969 165.753906 645.925781 177.796875 645.925781 L 198.144531 645.925781 C 210.1875 645.925781 219.945312 636.167969 219.945312 624.125 L 219.945312 614.675781 C 219.945312 602.636719 210.1875 592.875 198.144531 592.875 Z M 177.796875 592.875 " fill-opacity="1" fill-rule="nonzero"/></svg>